<?xml version="1.0" standalone="no"?><!DOCTYPE svg PUBLIC "-//W3C//DTD SVG 1.1//EN" "http://www.w3.org/Graphics/SVG/1.1/DTD/svg11.dtd"><svg t="1777282408552" class="icon" viewBox="0 0 1024 1024" version="1.1" xmlns="http://www.w3.org/2000/svg" p-id="2075" xmlns:xlink="http://www.w3.org/1999/xlink" width="200" height="200"><path d="M511.744128 1024c-282.198456 0-511.004942-229.204509-511.004942-511.97157S229.545672 0 511.744128 0c282.255317 0 511.118663 229.261369 511.118663 512.02843 0 282.767061-228.863346 511.97157-511.175524 511.97157z m116.279638-302.554501c25.587206 0 46.454995-20.810928 46.454995-46.511855v-325.810428a46.568716 46.568716 0 0 0-92.96685 0v325.810428c0 25.700927 20.810928 46.511855 46.511855 46.511855z m-232.331834 0a46.454995 46.454995 0 0 0 46.454995-46.511855v-325.810428a46.511855 46.511855 0 1 0-92.96685 0v325.810428c0 25.700927 20.810928 46.511855 46.511855 46.511855z" fill="#1296db" p-id="2076"></path></svg>